<svg width="16" height="17" viewBox="0 0 16 17" fill="none" xmlns="http://www.w3.org/2000/svg">
<path fill-rule="evenodd" clip-rule="evenodd" d="M7.99683 12.1178C7.72083 12.1178 7.49683 11.8938 7.49683 11.6178V9.92651C7.49683 9.65051 7.72083 9.42651 7.99683 9.42651C8.27283 9.42651 8.49683 9.65051 8.49683 9.92651V11.6178C8.49683 11.8938 8.27283 12.1178 7.99683 12.1178Z" fill="#622C98"/>
<mask id="mask0_1_879" style="mask-type:luminance" maskUnits="userSpaceOnUse" x="1" y="3" width="14" height="8">
<path fill-rule="evenodd" clip-rule="evenodd" d="M1.3335 3.55347H14.66V10.4275H1.3335V3.55347Z" fill="white"/>
</mask>
<g mask="url(#mask0_1_879)">
<path fill-rule="evenodd" clip-rule="evenodd" d="M2.3335 8.09547C3.9175 8.95613 5.91483 9.42747 7.9935 9.42747C10.0762 9.42747 12.0755 8.95613 13.6602 8.09547V6.09413C13.6602 5.24413 12.9728 4.55347 12.1268 4.55347H3.8735C3.02416 4.55347 2.3335 5.24147 2.3335 6.08747V8.09547ZM7.9935 10.4275C5.63016 10.4275 3.35216 9.85547 1.58083 8.81813C1.4275 8.7288 1.3335 8.5648 1.3335 8.3868V6.08747C1.3335 4.69013 2.47283 3.55347 3.8735 3.55347H12.1268C13.5242 3.55347 14.6602 4.6928 14.6602 6.09413V8.3868C14.6602 8.5648 14.5655 8.7288 14.4128 8.81813C12.6415 9.85547 10.3615 10.4275 7.9935 10.4275Z" fill="#622C98"/>
</g>
<mask id="mask1_1_879" style="mask-type:luminance" maskUnits="userSpaceOnUse" x="5" y="1" width="6" height="4">
<path fill-rule="evenodd" clip-rule="evenodd" d="M5.16345 1.8335H10.8301V4.55076H5.16345V1.8335Z" fill="white"/>
</mask>
<g mask="url(#mask1_1_879)">
<path fill-rule="evenodd" clip-rule="evenodd" d="M10.3301 4.55083C10.0541 4.55083 9.83012 4.32683 9.83012 4.05083V3.80683C9.83012 3.27016 9.39345 2.8335 8.85679 2.8335H7.13679C6.60012 2.8335 6.16345 3.27016 6.16345 3.80683V4.05083C6.16345 4.32683 5.93945 4.55083 5.66345 4.55083C5.38745 4.55083 5.16345 4.32683 5.16345 4.05083V3.80683C5.16345 2.71883 6.04879 1.8335 7.13679 1.8335H8.85679C9.94479 1.8335 10.8301 2.71883 10.8301 3.80683V4.05083C10.8301 4.32683 10.6061 4.55083 10.3301 4.55083Z" fill="#622C98"/>
</g>
<path fill-rule="evenodd" clip-rule="evenodd" d="M11.8633 14.9934H4.13C2.74667 14.9934 1.582 13.9127 1.47733 12.5327L1.35067 10.8601C1.33 10.5847 1.53667 10.3441 1.812 10.3234C2.08867 10.3134 2.32733 10.5087 2.34867 10.7847L2.47467 12.4567C2.54 13.3181 3.26667 13.9934 4.13 13.9934H11.8633C12.7267 13.9934 13.454 13.3181 13.5187 12.4567L13.6453 10.7847C13.6667 10.5087 13.9113 10.3127 14.182 10.3234C14.4573 10.3441 14.6633 10.5847 14.6427 10.8601L14.516 12.5327C14.4113 13.9127 13.2467 14.9934 11.8633 14.9934Z" fill="#622C98"/>
</svg>
