<svg width="18" height="19" viewBox="0 0 18 19" fill="none" xmlns="http://www.w3.org/2000/svg">
<mask id="mask0_1_873" style="mask-type:luminance" maskUnits="userSpaceOnUse" x="1" y="2" width="16" height="15">
<path fill-rule="evenodd" clip-rule="evenodd" d="M1.50024 2H16.1249V16.6255H1.50024V2Z" fill="white"/>
</mask>
<g mask="url(#mask0_1_873)">
<path fill-rule="evenodd" clip-rule="evenodd" d="M6.57999 9.19901C6.59349 9.21101 6.60624 9.22226 6.61899 9.23576C7.42824 10.0653 7.87449 11.164 7.87449 12.3303V15.3183L9.55149 14.4048C9.68349 14.3328 9.76524 14.1918 9.76524 14.0365V12.3213C9.76524 11.1595 10.207 10.0645 11.0087 9.23951L14.6365 5.38076C14.8712 5.13101 15.0002 4.80326 15.0002 4.45751V3.75551C15.0002 3.40751 14.7257 3.12476 14.3897 3.12476H3.23649C2.89974 3.12476 2.62524 3.40751 2.62524 3.75551V4.45751C2.62524 4.80326 2.75424 5.13101 2.98899 5.38001L6.57999 9.19901ZM7.60974 16.6255C7.45824 16.6255 7.30824 16.585 7.17174 16.504C6.90774 16.3465 6.74949 16.0683 6.74949 15.7593V12.3303C6.74949 11.479 6.43224 10.6773 5.85399 10.063C5.83674 10.0488 5.81949 10.033 5.80449 10.0165L2.16999 6.15176C1.73799 5.69276 1.50024 5.09051 1.50024 4.45751V3.75551C1.50024 2.78726 2.27949 1.99976 3.23649 1.99976H14.3897C15.346 1.99976 16.1252 2.78726 16.1252 3.75551V4.45751C16.1252 5.08976 15.8875 5.69126 15.457 6.15101L11.8217 10.0165C11.2195 10.6375 10.8902 11.4543 10.8902 12.3213V14.0365C10.8902 14.6035 10.5835 15.1225 10.09 15.3925L8.01924 16.5205C7.89024 16.5903 7.74999 16.6255 7.60974 16.6255Z" fill="#494949"/>
</g>
</svg>
